<svg xmlns="http://www.w3.org/2000/svg" viewBox="0 0 399.19 114.01"><defs><style>.cls-1,.cls-2,.cls-3,.cls-4,.cls-5{fill:#fbae42;}.cls-2{opacity:0.9;}.cls-3{opacity:0.4;}.cls-4{opacity:0.6;}.cls-5{opacity:0.8;}</style></defs><title>RVB_Formao_logos</title><g id="Formao"><polygon class="cls-1" points="150 83.69 159.4 83.69 159.4 60.76 181.18 60.76 181.18 53.25 159.4 53.25 159.4 37.16 184.38 37.16 184.38 29.57 150 29.57 150 83.69"/><path class="cls-1" d="M240,48l-.22-4.5h-8.62V83.69h9V56.19q2.16-4.76,8.36-4.76a22.45,22.45,0,0,1,3.68.3l0-8.47a8.44,8.44,0,0,0-3.2-.52A10.17,10.17,0,0,0,240,48Z"/><path class="cls-1" d="M300.56,42.73a14.26,14.26,0,0,0-12.34,6.17q-3-6.17-11-6.17-7.36,0-11.6,4.94l-.26-4.2h-8.51V83.69h9V54.55q2.27-4.42,7.69-4.42,7.06,0,7.25,7.1V83.69h9l0-27.58a8.74,8.74,0,0,1,2.73-4.33,7.53,7.53,0,0,1,5-1.65q3.87,0,5.54,1.78t1.67,5.61V83.69h9V57.26q-.07-7.17-3.33-10.85T300.56,42.73Z"/><path class="cls-1" d="M352,56.26q-.11-6.43-4.31-10t-11.26-3.55A21,21,0,0,0,328,44.37a14.62,14.62,0,0,0-6,4.52,10,10,0,0,0-2.19,6.19h9a4.77,4.77,0,0,1,2-3.92,8,8,0,0,1,5.05-1.54,6.93,6.93,0,0,1,5.32,1.88,7,7,0,0,1,1.75,5v2.64h-5.54q-8.88,0-13.66,3.44a11.42,11.42,0,0,0-4.78,9.87A11.06,11.06,0,0,0,322.78,81a14.2,14.2,0,0,0,9.89,3.46,14.05,14.05,0,0,0,10.55-4.5,14,14,0,0,0,1,3.75h9.22v-.63A20.58,20.58,0,0,1,352,74.4Zm-9,16.13a8.71,8.71,0,0,1-3.55,3.49,10.27,10.27,0,0,1-5,1.3,6.7,6.7,0,0,1-4.63-1.54A5.28,5.28,0,0,1,328,71.5a5.65,5.65,0,0,1,2.53-4.94q2.53-1.75,7.54-1.75h4.87Z"/><path class="cls-1" d="M206,42.73a20.85,20.85,0,1,0,20.85,20.85A20.85,20.85,0,0,0,206,42.73Zm0,34.46c-7.51,0-11.91-6.09-11.91-13.61S198.47,50,206,50s11.91,6.09,11.91,13.6S213.49,77.19,206,77.19Z"/><path class="cls-1" d="M378.34,42.73a20.85,20.85,0,1,0,20.85,20.85A20.85,20.85,0,0,0,378.34,42.73Zm0,34.46c-7.51,0-11.91-6.09-11.91-13.61S370.83,50,378.34,50s11.91,6.09,11.91,13.6S385.85,77.19,378.34,77.19Z"/><polygon class="cls-2" points="65.82 57 98.73 0 32.91 0 0 57 65.82 57"/><polygon class="cls-1" points="65.82 57 98.73 114.01 32.91 114.01 0 57 65.82 57"/><polygon class="cls-3" points="88.89 28.5 104.24 9.53 93.23 9.53 82.28 28.5 88.89 28.5"/><polygon class="cls-3" points="82.44 47.41 115.19 28.5 88.89 28.5 73.59 47.41 82.44 47.41"/><path class="cls-3" d="M126.1,47.41H82.45L65.82,57A205.41,205.41,0,0,0,126.1,47.41Z"/><polygon class="cls-3" points="93.23 104.48 104.24 104.48 88.89 85.51 82.28 85.51 93.23 104.48"/><polygon class="cls-3" points="88.89 85.51 115.19 85.51 82.44 66.6 73.59 66.6 88.89 85.51"/><path class="cls-3" d="M65.82,57l16.62,9.6H126.1A205.4,205.4,0,0,0,65.82,57Z"/><polygon class="cls-4" points="71.36 47.41 73.59 47.41 88.89 28.5 82.28 28.5 71.36 47.41"/><polygon class="cls-4" points="65.82 57 82.44 47.41 73.59 47.41 65.82 57"/><polygon class="cls-4" points="71.36 66.6 82.28 85.51 88.89 85.51 73.59 66.6 71.36 66.6"/><polygon class="cls-4" points="73.59 66.6 82.44 66.6 65.82 57 73.59 66.6"/><polygon class="cls-5" points="71.36 47.41 65.82 57 73.59 47.41 71.36 47.41"/><polygon class="cls-5" points="73.59 66.6 65.82 57 71.36 66.6 73.59 66.6"/></g></svg>